<svg width="44" height="44" viewBox="0 0 44 44" fill="none" xmlns="http://www.w3.org/2000/svg">
    <path fill-rule="evenodd" clip-rule="evenodd"
        d="M22 1.12821C10.4728 1.12821 1.12821 10.4728 1.12821 22C1.12821 33.5272 10.4728 42.8718 22 42.8718C33.5272 42.8718 42.8718 33.5272 42.8718 22C42.8718 10.4728 33.5272 1.12821 22 1.12821ZM0 22C0 9.84974 9.84974 0 22 0C34.1503 0 44 9.84974 44 22C44 34.1503 34.1503 44 22 44C9.84974 44 0 34.1503 0 22ZM22.0003 3.04622C18.2516 3.04622 14.5871 4.15784 11.4701 6.24052C8.3532 8.32319 5.92384 11.2834 4.48927 14.7467C3.0547 18.2101 2.67935 22.0211 3.41069 25.6978C4.14202 29.3745 5.9472 32.7517 8.59795 35.4025C11.2487 38.0532 14.6259 39.8584 18.3026 40.5897C21.9793 41.3211 25.7903 40.9457 29.2537 39.5111C32.717 38.0766 35.6772 35.6472 37.7599 32.5303C39.8426 29.4133 40.9542 25.7488 40.9542 22.0001C40.9485 16.975 38.9497 12.1573 35.3964 8.604C31.8431 5.05071 27.0255 3.05195 22.0003 3.04622ZM22.0003 39.1488C18.6086 39.1488 15.2931 38.143 12.473 36.2587C9.65293 34.3744 7.45494 31.6961 6.15699 28.5626C4.85904 25.4291 4.51944 21.981 5.18113 18.6545C5.84282 15.328 7.47607 12.2724 9.87436 9.87409C12.2727 7.4758 15.3283 5.84254 18.6548 5.18085C21.9813 4.51917 25.4293 4.85877 28.5629 6.15671C31.6964 7.45466 34.3747 9.65265 36.259 12.4727C38.1433 15.2928 39.1491 18.6084 39.1491 22.0001C39.144 26.5466 37.3357 30.9056 34.1208 34.1205C30.9059 37.3354 26.5469 39.1438 22.0003 39.1488ZM8.58254 29.4106L21.2184 7.74907C21.3043 7.621 21.4203 7.51603 21.5563 7.44344C21.6923 7.37086 21.8441 7.33289 21.9983 7.33289C22.1524 7.33289 22.3042 7.37086 22.4402 7.44344C22.5762 7.51603 22.6923 7.621 22.7781 7.74907L35.414 29.4106C35.4931 29.5477 35.5348 29.7032 35.5349 29.8614C35.535 30.0197 35.4934 30.1752 35.4144 30.3124C35.3354 30.4495 35.2218 30.5635 35.0848 30.6429C34.9478 30.7222 34.7924 30.7641 34.6342 30.7645H9.36236C9.20408 30.7641 9.04867 30.7222 8.91172 30.6429C8.77477 30.5635 8.66109 30.4495 8.58209 30.3124C8.50309 30.1752 8.46154 30.0197 8.46162 29.8614C8.4617 29.7032 8.5034 29.5477 8.58254 29.4106ZM25.8197 24.4465L21.9983 18.0771L18.1768 24.4465H25.8197ZM15.9204 24.6992L21.0957 16.0734V11.5398L11.9798 27.1596L15.9204 24.6992ZM27.1555 26.2516H16.841L12.5087 28.9593H31.4878L27.1555 26.2516ZM22.9008 16.0734L28.0761 24.6992L32.0167 27.1596L22.9008 11.5398V16.0734Z"
        fill="white" />
</svg>